<?xml version="1.0" encoding="utf-8"?>
<!-- Generated by IcoMoon.io -->
<!DOCTYPE svg PUBLIC "-//W3C//DTD SVG 1.1//EN" "http://www.w3.org/Graphics/SVG/1.1/DTD/svg11.dtd">
<svg version="1.1" xmlns="http://www.w3.org/2000/svg" xmlns:xlink="http://www.w3.org/1999/xlink" width="496" height="48" viewBox="0 0 496 48">
<svg id="icon-play" width="16" height="16" viewBox="0 0 16 16" x="0" y="0">
<path d="M15.331 2.502c-2.244-0.323-4.724-0.502-7.331-0.502s-5.087 0.179-7.331 0.502c-0.43 1.683-0.669 3.543-0.669 5.498s0.239 3.815 0.669 5.498c2.244 0.323 4.724 0.502 7.331 0.502s5.087-0.179 7.331-0.502c0.43-1.683 0.669-3.543 0.669-5.498s-0.239-3.815-0.669-5.498zM6 11v-6l5 3-5 3z"></path>
</svg>
<svg id="icon-price-tag" width="16" height="16" viewBox="0 0 16 16" x="32" y="0">
<path d="M15.25 0h-6c-0.412 0-0.989 0.239-1.28 0.53l-7.439 7.439c-0.292 0.292-0.292 0.769 0 1.061l6.439 6.439c0.292 0.292 0.769 0.292 1.061 0l7.439-7.439c0.292-0.292 0.53-0.868 0.53-1.28v-6c0-0.412-0.338-0.75-0.75-0.75zM11.5 6c-0.828 0-1.5-0.672-1.5-1.5s0.672-1.5 1.5-1.5 1.5 0.672 1.5 1.5-0.672 1.5-1.5 1.5z"></path>
</svg>
<svg id="icon-envelop" width="16" height="16" viewBox="0 0 16 16" x="64" y="0">
<path d="M14.5 2h-13c-0.825 0-1.5 0.675-1.5 1.5v10c0 0.825 0.675 1.5 1.5 1.5h13c0.825 0 1.5-0.675 1.5-1.5v-10c0-0.825-0.675-1.5-1.5-1.5zM6.23 8.6l-4.23 3.295v-7.838l4.23 4.543zM2.756 4h10.488l-5.244 3.938-5.244-3.938zM6.395 8.777l1.605 1.723 1.605-1.723 3.29 4.223h-9.79l3.29-4.223zM9.77 8.6l4.23-4.543v7.838l-4.23-3.295z"></path>
</svg>
<svg id="icon-location" width="16" height="16" viewBox="0 0 16 16" x="96" y="0">
<path d="M8 0c-2.761 0-5 2.239-5 5 0 5 5 11 5 11s5-6 5-11c0-2.761-2.239-5-5-5zM8 8c-1.657 0-3-1.343-3-3s1.343-3 3-3 3 1.343 3 3-1.343 3-3 3z"></path>
</svg>
<svg id="icon-calendar" width="16" height="16" viewBox="0 0 16 16" x="128" y="0">
<path d="M5 6h2v2h-2zM8 6h2v2h-2zM11 6h2v2h-2zM2 12h2v2h-2zM5 12h2v2h-2zM8 12h2v2h-2zM5 9h2v2h-2zM8 9h2v2h-2zM11 9h2v2h-2zM2 9h2v2h-2zM13 0v1h-2v-1h-7v1h-2v-1h-2v16h15v-16h-2zM14 15h-13v-11h13v11z"></path>
</svg>
<svg id="icon-printer" width="16" height="16" viewBox="0 0 16 16" x="160" y="0">
<path d="M4 1h8v2h-8v-2z"></path>
<path d="M15 4h-14c-0.55 0-1 0.45-1 1v5c0 0.55 0.45 1 1 1h3v4h8v-4h3c0.55 0 1-0.45 1-1v-5c0-0.55-0.45-1-1-1zM2 7c-0.552 0-1-0.448-1-1s0.448-1 1-1 1 0.448 1 1-0.448 1-1 1zM11 14h-6v-5h6v5z"></path>
</svg>
<svg id="icon-display" width="16" height="16" viewBox="0 0 16 16" x="192" y="0">
<path d="M0 1v10h16v-10h-16zM15 10h-14v-8h14v8zM10.5 12h-5l-0.5 2-1 1h8l-1-1z"></path>
</svg>
<svg id="icon-laptop" width="16" height="16" viewBox="0 0 16 16" x="224" y="0">
<path d="M14 11v-8c0-0.55-0.45-1-1-1h-10c-0.55 0-1 0.45-1 1v8h-2v3h16v-3h-2zM10 13h-4v-1h4v1zM13 11h-10v-7.998c0.001-0.001 0.001-0.001 0.002-0.002h9.996c0.001 0.001 0.001 0.001 0.002 0.002v7.998z"></path>
</svg>
<svg id="icon-mobile" width="16" height="16" viewBox="0 0 16 16" x="256" y="0">
<path d="M11.5 0h-7c-0.825 0-1.5 0.675-1.5 1.5v13c0 0.825 0.675 1.5 1.5 1.5h7c0.825 0 1.5-0.675 1.5-1.5v-13c0-0.825-0.675-1.5-1.5-1.5zM6 0.75h4v0.5h-4v-0.5zM8 15c-0.552 0-1-0.448-1-1s0.448-1 1-1 1 0.448 1 1-0.448 1-1 1zM12 12h-8v-10h8v10z"></path>
</svg>
<svg id="icon-tablet" width="16" height="16" viewBox="0 0 16 16" x="288" y="0">
<path d="M12.5 0h-10c-0.825 0-1.5 0.675-1.5 1.5v13c0 0.825 0.675 1.5 1.5 1.5h10c0.825 0 1.5-0.675 1.5-1.5v-13c0-0.825-0.675-1.5-1.5-1.5zM7.5 15.5c-0.276 0-0.5-0.224-0.5-0.5s0.224-0.5 0.5-0.5 0.5 0.224 0.5 0.5-0.224 0.5-0.5 0.5zM12 14h-9v-12h9v12z"></path>
</svg>
<svg id="icon-bubble" width="16" height="16" viewBox="0 0 16 16" x="320" y="0">
<path d="M8 1c4.418 0 8 2.91 8 6.5s-3.582 6.5-8 6.5c-0.424 0-0.841-0.027-1.247-0.079-1.718 1.718-3.77 2.027-5.753 2.072v-0.421c1.071-0.525 2-1.48 2-2.572 0-0.152-0.012-0.302-0.034-0.448-1.809-1.192-2.966-3.012-2.966-5.052 0-3.59 3.582-6.5 8-6.5z"></path>
</svg>
<svg id="icon-bubbles2" width="18" height="16" viewBox="0 0 18 16" x="352" y="0">
<path d="M7.5 0v0c4.142 0 7.5 2.717 7.5 6.069s-3.358 6.069-7.5 6.069c-0.398 0-0.788-0.025-1.169-0.074-1.611 1.605-3.471 1.892-5.331 1.935v-0.393c1.004-0.49 1.813-1.382 1.813-2.402 0-0.142-0.011-0.282-0.032-0.419-1.696-1.113-2.781-2.812-2.781-4.717 0-3.352 3.358-6.069 7.5-6.069zM15.563 13.604c0 0.874 0.567 1.639 1.438 2.059v0.337c-1.611-0.036-3.090-0.283-4.487-1.658-0.33 0.041-0.669 0.063-1.013 0.063-1.492 0-2.866-0.402-3.963-1.079 2.261-0.008 4.395-0.732 6.013-2.042 0.816-0.66 1.459-1.435 1.913-2.302 0.481-0.92 0.724-1.9 0.724-2.913 0-0.163-0.007-0.326-0.020-0.487 1.134 0.936 1.832 2.213 1.832 3.62 0 1.633-0.94 3.089-2.41 4.043-0.018 0.117-0.027 0.237-0.027 0.359z"></path>
</svg>
<svg id="icon-spinner6" width="16" height="16" viewBox="0 0 16 16" x="384" y="0">
<path d="M6 2c0-1.105 0.895-2 2-2s2 0.895 2 2c0 1.105-0.895 2-2 2s-2-0.895-2-2zM12.359 8c0 0 0 0 0 0 0-0.906 0.735-1.641 1.641-1.641s1.641 0.735 1.641 1.641c0 0 0 0 0 0 0 0.906-0.735 1.641-1.641 1.641s-1.641-0.735-1.641-1.641zM10.757 12.243c0-0.821 0.665-1.486 1.486-1.486s1.486 0.665 1.486 1.486c0 0.821-0.665 1.486-1.486 1.486s-1.486-0.665-1.486-1.486zM6.654 14c0-0.743 0.603-1.346 1.346-1.346s1.346 0.603 1.346 1.346c0 0.743-0.603 1.346-1.346 1.346s-1.346-0.603-1.346-1.346zM2.538 12.243c0-0.673 0.546-1.219 1.219-1.219s1.219 0.546 1.219 1.219c0 0.673-0.546 1.219-1.219 1.219s-1.219-0.546-1.219-1.219zM0.896 8c0-0.61 0.494-1.104 1.104-1.104s1.104 0.494 1.104 1.104c0 0.61-0.494 1.104-1.104 1.104s-1.104-0.494-1.104-1.104zM2.757 3.757c0 0 0 0 0 0 0-0.552 0.448-1 1-1s1 0.448 1 1c0 0 0 0 0 0 0 0.552-0.448 1-1 1s-1-0.448-1-1zM14.054 3.757c0 1-0.811 1.811-1.812 1.811s-1.812-0.811-1.812-1.811c0-1.001 0.811-1.811 1.812-1.811s1.812 0.811 1.812 1.811z"></path>
</svg>
<svg id="icon-earth" width="16" height="16" viewBox="0 0 16 16" x="416" y="0">
<path d="M8 0c-4.418 0-8 3.582-8 8s3.582 8 8 8 8-3.582 8-8-3.582-8-8-8zM8 15c-0.984 0-1.92-0.203-2.769-0.57l3.643-4.098c0.081-0.092 0.126-0.21 0.126-0.332v-1.5c0-0.276-0.224-0.5-0.5-0.5-1.765 0-3.628-1.835-3.646-1.854-0.094-0.094-0.221-0.146-0.354-0.146h-2c-0.276 0-0.5 0.224-0.5 0.5v3c0 0.189 0.107 0.363 0.276 0.447l1.724 0.862v2.936c-1.813-1.265-3-3.366-3-5.745 0-1.074 0.242-2.091 0.674-3h1.826c0.133 0 0.26-0.053 0.354-0.146l2-2c0.094-0.094 0.146-0.221 0.146-0.354v-1.21c0.634-0.189 1.305-0.29 2-0.29 1.1 0 2.141 0.254 3.067 0.706-0.065 0.055-0.128 0.112-0.188 0.172-0.567 0.567-0.879 1.32-0.879 2.121s0.312 1.555 0.879 2.121c0.569 0.569 1.332 0.879 2.119 0.879 0.049 0 0.099-0.001 0.149-0.004 0.216 0.809 0.605 2.917-0.131 5.818-0.007 0.027-0.011 0.055-0.013 0.082-1.271 1.298-3.042 2.104-5.002 2.104z"></path>
</svg>
<svg id="icon-link" width="16" height="16" viewBox="0 0 16 16" x="448" y="0">
<path d="M6.879 9.934c-0.208 0-0.416-0.079-0.575-0.238-1.486-1.486-1.486-3.905 0-5.392l3-3c0.72-0.72 1.678-1.117 2.696-1.117s1.976 0.397 2.696 1.117c1.486 1.487 1.486 3.905 0 5.392l-1.371 1.371c-0.317 0.317-0.832 0.317-1.149 0s-0.317-0.832 0-1.149l1.371-1.371c0.853-0.853 0.853-2.241 0-3.094-0.413-0.413-0.963-0.641-1.547-0.641s-1.134 0.228-1.547 0.641l-3 3c-0.853 0.853-0.853 2.241 0 3.094 0.317 0.317 0.317 0.832 0 1.149-0.159 0.159-0.367 0.238-0.575 0.238z"></path>
<path d="M4 15.813c-1.018 0-1.976-0.397-2.696-1.117-1.486-1.486-1.486-3.905 0-5.392l1.371-1.371c0.317-0.317 0.832-0.317 1.149 0s0.317 0.832 0 1.149l-1.371 1.371c-0.853 0.853-0.853 2.241 0 3.094 0.413 0.413 0.962 0.641 1.547 0.641s1.134-0.228 1.547-0.641l3-3c0.853-0.853 0.853-2.241 0-3.094-0.317-0.317-0.317-0.832 0-1.149s0.832-0.317 1.149 0c1.486 1.486 1.486 3.905 0 5.392l-3 3c-0.72 0.72-1.678 1.117-2.696 1.117z"></path>
</svg>
<svg id="icon-share2" width="16" height="16" viewBox="0 0 16 16" x="480" y="0">
<path d="M13.5 11c-0.706 0-1.342 0.293-1.797 0.763l-6.734-3.367c0.021-0.129 0.032-0.261 0.032-0.396s-0.011-0.267-0.032-0.396l6.734-3.367c0.455 0.47 1.091 0.763 1.797 0.763 1.381 0 2.5-1.119 2.5-2.5s-1.119-2.5-2.5-2.5-2.5 1.119-2.5 2.5c0 0.135 0.011 0.267 0.031 0.396l-6.734 3.367c-0.455-0.47-1.091-0.763-1.797-0.763-1.381 0-2.5 1.119-2.5 2.5s1.119 2.5 2.5 2.5c0.706 0 1.343-0.293 1.797-0.763l6.734 3.367c-0.021 0.129-0.031 0.261-0.031 0.396 0 1.381 1.119 2.5 2.5 2.5s2.5-1.119 2.5-2.5c0-1.381-1.119-2.5-2.5-2.5z"></path>
</svg>
<svg id="icon-google" width="16" height="16" viewBox="0 0 16 16" x="0" y="32">
<path d="M8.159 6.856v2.744h4.537c-0.184 1.178-1.372 3.45-4.537 3.45-2.731 0-4.959-2.262-4.959-5.050s2.228-5.050 4.959-5.050c1.553 0 2.594 0.663 3.188 1.234l2.172-2.091c-1.394-1.306-3.2-2.094-5.359-2.094-4.422 0-8 3.578-8 8s3.578 8 8 8c4.616 0 7.681-3.247 7.681-7.816 0-0.525-0.056-0.925-0.125-1.325l-7.556-0.003z"></path>
</svg>
<svg id="icon-facebook" width="16" height="16" viewBox="0 0 16 16" x="32" y="32">
<path d="M9.5 3h2.5v-3h-2.5c-1.93 0-3.5 1.57-3.5 3.5v1.5h-2v3h2v8h3v-8h2.5l0.5-3h-3v-1.5c0-0.271 0.229-0.5 0.5-0.5z"></path>
</svg>
<svg id="icon-twitter" width="16" height="16" viewBox="0 0 16 16" x="64" y="32">
<path d="M16 3.538c-0.588 0.263-1.222 0.438-1.884 0.516 0.678-0.406 1.197-1.050 1.444-1.816-0.634 0.375-1.338 0.65-2.084 0.797-0.6-0.638-1.453-1.034-2.397-1.034-1.813 0-3.281 1.469-3.281 3.281 0 0.256 0.028 0.506 0.084 0.747-2.728-0.138-5.147-1.444-6.766-3.431-0.281 0.484-0.444 1.050-0.444 1.65 0 1.138 0.578 2.144 1.459 2.731-0.538-0.016-1.044-0.166-1.488-0.409 0 0.013 0 0.028 0 0.041 0 1.591 1.131 2.919 2.634 3.219-0.275 0.075-0.566 0.116-0.866 0.116-0.212 0-0.416-0.022-0.619-0.059 0.419 1.303 1.631 2.253 3.066 2.281-1.125 0.881-2.538 1.406-4.078 1.406-0.266 0-0.525-0.016-0.784-0.047 1.456 0.934 3.181 1.475 5.034 1.475 6.037 0 9.341-5.003 9.341-9.341 0-0.144-0.003-0.284-0.009-0.425 0.641-0.459 1.197-1.038 1.637-1.697z"></path>
</svg>
<svg id="icon-youtube" width="16" height="16" viewBox="0 0 16 16" x="96" y="32">
<path d="M15.841 4.8c0 0-0.156-1.103-0.637-1.587-0.609-0.637-1.291-0.641-1.603-0.678-2.237-0.163-5.597-0.163-5.597-0.163h-0.006c0 0-3.359 0-5.597 0.163-0.313 0.038-0.994 0.041-1.603 0.678-0.481 0.484-0.634 1.587-0.634 1.587s-0.159 1.294-0.159 2.591v1.213c0 1.294 0.159 2.591 0.159 2.591s0.156 1.103 0.634 1.588c0.609 0.637 1.409 0.616 1.766 0.684 1.281 0.122 5.441 0.159 5.441 0.159s3.363-0.006 5.6-0.166c0.313-0.037 0.994-0.041 1.603-0.678 0.481-0.484 0.637-1.588 0.637-1.588s0.159-1.294 0.159-2.591v-1.213c-0.003-1.294-0.162-2.591-0.162-2.591zM6.347 10.075v-4.497l4.322 2.256-4.322 2.241z"></path>
</svg>
<svg id="icon-github" width="16" height="16" viewBox="0 0 16 16" x="128" y="32">
<path d="M8 0.198c-4.418 0-8 3.582-8 8 0 3.535 2.292 6.533 5.471 7.591 0.4 0.074 0.547-0.174 0.547-0.385 0-0.191-0.008-0.821-0.011-1.489-2.226 0.484-2.695-0.944-2.695-0.944-0.364-0.925-0.888-1.171-0.888-1.171-0.726-0.497 0.055-0.486 0.055-0.486 0.803 0.056 1.226 0.824 1.226 0.824 0.714 1.223 1.872 0.869 2.328 0.665 0.072-0.517 0.279-0.87 0.508-1.070-1.777-0.202-3.645-0.888-3.645-3.954 0-0.873 0.313-1.587 0.824-2.147-0.083-0.202-0.357-1.015 0.077-2.117 0 0 0.672-0.215 2.201 0.82 0.638-0.177 1.322-0.266 2.002-0.269 0.68 0.003 1.365 0.092 2.004 0.269 1.527-1.035 2.198-0.82 2.198-0.82 0.435 1.102 0.162 1.916 0.079 2.117 0.513 0.56 0.823 1.274 0.823 2.147 0 3.073-1.872 3.749-3.653 3.947 0.287 0.248 0.543 0.735 0.543 1.481 0 1.070-0.009 1.932-0.009 2.195 0 0.213 0.144 0.462 0.55 0.384 3.177-1.059 5.466-4.057 5.466-7.59 0-4.418-3.582-8-8-8z"></path>
</svg>
<svg id="icon-reddit" width="16" height="16" viewBox="0 0 16 16" x="160" y="32">
<path d="M4 10c0-0.552 0.448-1 1-1s1 0.448 1 1c0 0.552-0.448 1-1 1s-1-0.448-1-1zM10 10c0-0.552 0.448-1 1-1s1 0.448 1 1c0 0.552-0.448 1-1 1s-1-0.448-1-1zM10.049 12.137c0.258-0.203 0.631-0.159 0.834 0.099s0.159 0.631-0.099 0.834c-0.717 0.565-1.81 0.93-2.783 0.93s-2.066-0.365-2.784-0.93c-0.258-0.203-0.302-0.576-0.099-0.834s0.576-0.302 0.834-0.099c0.413 0.325 1.23 0.675 2.049 0.675s1.636-0.35 2.049-0.675zM16 8c0-1.105-0.895-2-2-2-0.752 0-1.406 0.415-1.748 1.028-1.028-0.562-2.28-0.926-3.645-1.010l1.193-2.68 2.284 0.659c0.206 0.583 0.761 1.002 1.415 1.002 0.828 0 1.5-0.672 1.5-1.5s-0.672-1.5-1.5-1.5c-0.571 0-1.068 0.319-1.321 0.789l-2.545-0.735c-0.285-0.082-0.587 0.058-0.707 0.329l-1.621 3.641c-1.33 0.094-2.551 0.453-3.557 1.004-0.342-0.613-0.996-1.028-1.748-1.028-1.105 0-2 0.895-2 2 0 0.817 0.491 1.52 1.193 1.83-0.126 0.375-0.193 0.767-0.193 1.17 0 2.761 3.134 5 7 5s7-2.239 7-5c0-0.403-0.067-0.795-0.193-1.17 0.703-0.31 1.193-1.013 1.193-1.83zM13.5 2.938c0.311 0 0.563 0.252 0.563 0.563s-0.252 0.563-0.563 0.563-0.563-0.252-0.563-0.563 0.252-0.563 0.563-0.563zM1 8c0-0.551 0.449-1 1-1 0.399 0 0.743 0.234 0.904 0.573-0.523 0.396-0.956 0.854-1.276 1.355-0.368-0.148-0.628-0.508-0.628-0.928zM8 14.813c-3.21 0-5.813-1.707-5.813-3.813s2.602-3.813 5.813-3.813c3.21 0 5.813 1.707 5.813 3.813s-2.602 3.813-5.813 3.813zM14.372 8.928c-0.32-0.502-0.753-0.959-1.276-1.355 0.161-0.338 0.505-0.573 0.904-0.573 0.551 0 1 0.449 1 1 0 0.42-0.26 0.78-0.628 0.928z"></path>
</svg>
<svg id="icon-linkedin2" width="16" height="16" viewBox="0 0 16 16" x="192" y="32">
<path d="M6 6h2.767v1.418h0.040c0.385-0.691 1.327-1.418 2.732-1.418 2.921 0 3.461 1.818 3.461 4.183v4.817h-2.885v-4.27c0-1.018-0.021-2.329-1.5-2.329-1.502 0-1.732 1.109-1.732 2.255v4.344h-2.883v-9z"></path>
<path d="M1 6h3v9h-3v-9z"></path>
<path d="M4 3.5c0 0.828-0.672 1.5-1.5 1.5s-1.5-0.672-1.5-1.5c0-0.828 0.672-1.5 1.5-1.5s1.5 0.672 1.5 1.5z"></path>
</svg>
<svg id="icon-chrome" width="16" height="16" viewBox="0 0 16 16" x="224" y="32">
<path d="M4.036 6.977l-2.29-3.966c1.466-1.835 3.722-3.012 6.254-3.012 2.929 0 5.489 1.574 6.883 3.922h-6.528c-0.117-0.010-0.236-0.016-0.356-0.016-1.904 0-3.509 1.307-3.964 3.071zM10.864 5.078h4.585c0.355 0.905 0.551 1.891 0.551 2.922 0 4.388-3.533 7.95-7.909 7.999l3.272-5.667c0.461-0.662 0.731-1.466 0.731-2.332 0-1.143-0.471-2.178-1.23-2.922zM5.094 8c0-1.603 1.304-2.906 2.906-2.906s2.906 1.304 2.906 2.906c0 1.602-1.304 2.906-2.906 2.906s-2.906-1.304-2.906-2.906zM9.097 11.944l-2.29 3.967c-3.852-0.576-6.806-3.899-6.806-7.911 0-1.425 0.373-2.763 1.026-3.922l3.266 5.657c0.654 1.392 2.070 2.359 3.707 2.359 0.38 0 0.747-0.052 1.097-0.149z"></path>
</svg>
<svg id="icon-firefox" width="16" height="16" viewBox="0 0 16 16" x="256" y="32">
<path d="M15.977 5.221l-0.185 1.189c0 0-0.265-2.201-0.59-3.024-0.498-1.261-0.719-1.251-0.72-1.249 0.333 0.847 0.273 1.302 0.273 1.302s-0.591-1.609-2.152-2.121c-1.729-0.567-2.665-0.412-2.773-0.383-0.016-0-0.032-0-0.047-0 0.013 0.001 0.025 0.002 0.038 0.003-0.001 0-0.001 0.001-0.001 0.001 0.007 0.009 1.911 0.333 2.249 0.797 0 0-0.809 0-1.614 0.232-0.036 0.010 2.961 0.374 3.574 3.37 0 0-0.329-0.686-0.735-0.802 0.267 0.813 0.199 2.356-0.056 3.123-0.033 0.099-0.066-0.426-0.568-0.652 0.161 1.151-0.010 2.976-0.808 3.479-0.062 0.039 0.5-1.802 0.113-1.090-2.23 3.419-4.866 1.578-6.051 0.767 0.607 0.132 1.76-0.021 2.271-0.4 0.001-0 0.001-0.001 0.002-0.001 0.554-0.379 0.882-0.656 1.177-0.59s0.491-0.23 0.262-0.493c-0.229-0.263-0.786-0.625-1.539-0.428-0.531 0.139-1.19 0.727-2.194 0.132-0.771-0.457-0.844-0.837-0.851-1.1 0.019-0.093 0.043-0.18 0.072-0.26 0.089-0.248 0.358-0.323 0.508-0.382 0.254 0.044 0.473 0.123 0.703 0.241 0.003-0.076 0.004-0.178-0-0.293 0.022-0.044 0.008-0.176-0.027-0.337-0.020-0.161-0.053-0.328-0.106-0.48 0-0 0-0 0-0s0.002-0.001 0.002-0.001c0.001-0.001 0.002-0.002 0.003-0.003s0-0.001 0.001-0.001c0.001-0.002 0.002-0.004 0.003-0.007 0.016-0.072 0.188-0.211 0.402-0.361 0.192-0.134 0.417-0.277 0.595-0.387 0.157-0.098 0.277-0.17 0.302-0.189 0.010-0.007 0.021-0.016 0.034-0.026 0.002-0.002 0.005-0.004 0.007-0.006s0.003-0.002 0.004-0.004c0.085-0.067 0.211-0.194 0.237-0.462 0-0.001 0-0.001 0-0.002 0.001-0.008 0.001-0.016 0.002-0.024 0-0.006 0.001-0.011 0.001-0.017 0-0.004 0-0.009 0.001-0.013 0-0.011 0.001-0.021 0.001-0.032 0-0.001 0-0.001 0-0.002 0-0.026-0-0.053-0.002-0.081-0.001-0.016-0.002-0.030-0.005-0.043-0-0.001-0-0.001-0-0.002s-0.001-0.003-0.001-0.004-0.001-0.005-0.002-0.007c-0-0-0-0-0-0.001-0.001-0.003-0.002-0.005-0.003-0.007-0-0-0-0-0-0-0.027-0.064-0.13-0.088-0.554-0.096-0-0-0.001-0-0.001-0v0c-0.173-0.003-0.399-0.003-0.695-0.002-0.52 0.002-0.807-0.508-0.898-0.705 0.126-0.695 0.489-1.19 1.085-1.525 0.011-0.006 0.009-0.012-0.004-0.015 0.117-0.071-1.41-0.002-2.112 0.891-0.623-0.155-1.166-0.144-1.635-0.035-0.090-0.003-0.202-0.014-0.335-0.041-0.311-0.282-0.757-0.803-0.781-1.425 0 0-0.001 0.001-0.004 0.003-0-0.006-0.001-0.012-0.001-0.018 0 0-0.949 0.729-0.807 2.717-0 0.032-0.001 0.062-0.002 0.092-0.257 0.348-0.384 0.641-0.394 0.706-0.228 0.463-0.458 1.16-0.646 2.218 0 0 0.131-0.417 0.395-0.889-0.194 0.594-0.346 1.518-0.257 2.904 0 0 0.024-0.307 0.107-0.75 0.065 0.86 0.352 1.921 1.076 3.169 1.39 2.396 3.526 3.605 5.887 3.791 0.419 0.035 0.845 0.035 1.272 0.003 0.039-0.003 0.079-0.006 0.118-0.009 0.484-0.034 0.971-0.107 1.457-0.224 6.643-1.606 5.921-9.628 5.921-9.628z"></path>
</svg>
<svg id="icon-edge" width="16" height="16" viewBox="0 0 16 16" x="288" y="32">
<path d="M0.241 7.103c0.469-3.7 2.994-7.056 7.519-7.103 2.731 0.053 4.978 1.291 6.316 3.65 0.672 1.231 0.881 2.525 0.925 3.953v1.678h-10.041c0.047 4.141 6.094 4 8.697 2.175v3.372c-1.525 0.916-4.984 1.734-7.662 0.681-2.281-0.856-3.906-3.244-3.897-5.541-0.075-2.978 1.481-4.95 3.897-6.072-0.513 0.634-0.903 1.334-1.106 2.547h5.669c0 0 0.331-3.388-3.209-3.388-3.338 0.116-5.744 2.056-7.106 4.047v0z"></path>
</svg>
<svg id="icon-html-five2" width="16" height="16" viewBox="0 0 16 16" x="320" y="32">
<path d="M0.946 0l1.284 14.4 5.762 1.6 5.777-1.602 1.286-14.398h-14.108zM12.668 13.482l-4.644 1.287v0.007l-0.012-0.004-0.012 0.004v-0.007l-4.644-1.287-1.098-12.304h11.508l-1.098 12.304zM10.168 8.284l-0.204 2.29-1.972 0.532-1.967-0.53-0.126-1.41h-1.773l0.247 2.774 3.626 1.003 3.615-1.003 0.485-5.422h-6.437l-0.161-1.809h6.758l0.158-1.766h-8.847l0.477 5.341z"></path>
</svg>
</svg>
